<mxfile host="app.diagrams.net" modified="2024-01-27T11:05:24.558Z" agent="Mozilla/5.0 (Windows NT 10.0; Win64; x64) AppleWebKit/537.36 (KHTML, like Gecko) Chrome/120.0.0.0 Safari/537.36" etag="osYjV8-m6hF70NQ-hEXl" version="23.0.2" type="github">
  <diagram name="第 1 页" id="3V8NZiPNIGzD1AMQ8mw4">
    <mxGraphModel dx="1816" dy="514" grid="0" gridSize="10" guides="1" tooltips="1" connect="1" arrows="1" fold="1" page="1" pageScale="1" pageWidth="827" pageHeight="1169" math="0" shadow="0">
      <root>
        <mxCell id="0" />
        <mxCell id="1" parent="0" />
        <mxCell id="HHKf8pC_p8qi1eC1l4ik-1" value="买方" style="rounded=0;whiteSpace=wrap;html=1;" parent="1" vertex="1">
          <mxGeometry x="230" y="179" width="120" height="60" as="geometry" />
        </mxCell>
        <mxCell id="HHKf8pC_p8qi1eC1l4ik-2" value="卖方" style="rounded=0;whiteSpace=wrap;html=1;" parent="1" vertex="1">
          <mxGeometry x="350" y="179" width="120" height="60" as="geometry" />
        </mxCell>
        <mxCell id="HHKf8pC_p8qi1eC1l4ik-3" value="交易体系" style="rounded=0;whiteSpace=wrap;html=1;" parent="1" vertex="1">
          <mxGeometry x="288" y="225" width="120" height="60" as="geometry" />
        </mxCell>
        <mxCell id="l7gOZ-Ok3mGfKvi89890-5" style="edgeStyle=orthogonalEdgeStyle;rounded=0;orthogonalLoop=1;jettySize=auto;html=1;exitX=1;exitY=0.5;exitDx=0;exitDy=0;entryX=0;entryY=0.5;entryDx=0;entryDy=0;" edge="1" parent="1" source="HHKf8pC_p8qi1eC1l4ik-5" target="l7gOZ-Ok3mGfKvi89890-3">
          <mxGeometry relative="1" as="geometry">
            <mxPoint x="134.1379310344828" y="446.1034482758621" as="targetPoint" />
          </mxGeometry>
        </mxCell>
        <mxCell id="HHKf8pC_p8qi1eC1l4ik-5" value="买商品" style="ellipse;whiteSpace=wrap;html=1;" parent="1" vertex="1">
          <mxGeometry x="-33" y="406" width="120" height="80" as="geometry" />
        </mxCell>
        <mxCell id="l7gOZ-Ok3mGfKvi89890-4" style="edgeStyle=orthogonalEdgeStyle;rounded=0;orthogonalLoop=1;jettySize=auto;html=1;entryX=0;entryY=0.5;entryDx=0;entryDy=0;" edge="1" parent="1" source="HHKf8pC_p8qi1eC1l4ik-6" target="l7gOZ-Ok3mGfKvi89890-3">
          <mxGeometry relative="1" as="geometry" />
        </mxCell>
        <mxCell id="HHKf8pC_p8qi1eC1l4ik-6" value="卖商品" style="ellipse;whiteSpace=wrap;html=1;" parent="1" vertex="1">
          <mxGeometry x="-33" y="322" width="120" height="80" as="geometry" />
        </mxCell>
        <mxCell id="l7gOZ-Ok3mGfKvi89890-6" style="edgeStyle=orthogonalEdgeStyle;rounded=0;orthogonalLoop=1;jettySize=auto;html=1;exitX=1;exitY=0.5;exitDx=0;exitDy=0;entryX=0;entryY=0.5;entryDx=0;entryDy=0;" edge="1" parent="1" source="HHKf8pC_p8qi1eC1l4ik-7" target="l7gOZ-Ok3mGfKvi89890-3">
          <mxGeometry relative="1" as="geometry" />
        </mxCell>
        <mxCell id="HHKf8pC_p8qi1eC1l4ik-7" value="展示商品" style="ellipse;whiteSpace=wrap;html=1;" parent="1" vertex="1">
          <mxGeometry x="-33" y="491" width="120" height="80" as="geometry" />
        </mxCell>
        <mxCell id="l7gOZ-Ok3mGfKvi89890-3" value="价格&lt;br&gt;数量" style="rounded=0;whiteSpace=wrap;html=1;" vertex="1" parent="1">
          <mxGeometry x="149" y="416" width="120" height="60" as="geometry" />
        </mxCell>
      </root>
    </mxGraphModel>
  </diagram>
</mxfile>
